<mxfile host="Electron" agent="Mozilla/5.0 (X11; Linux x86_64) AppleWebKit/537.36 (KHTML, like Gecko) draw.io/24.7.8 Chrome/128.0.6613.36 Electron/32.0.1 Safari/537.36" version="24.7.8">
  <diagram name="Page-1" id="oauzqqBydwFow21mM6-s">
    <mxGraphModel dx="2537" dy="975" grid="1" gridSize="10" guides="1" tooltips="1" connect="1" arrows="1" fold="1" page="1" pageScale="1" pageWidth="850" pageHeight="1100" math="0" shadow="0">
      <root>
        <mxCell id="0" />
        <mxCell id="1" parent="0" />
        <mxCell id="PWJwkUFBTQs_2MsSsWms-1" value="&lt;b&gt;Generate Conversation&lt;/b&gt;" style="rounded=0;whiteSpace=wrap;html=1;fillColor=#d80073;fontColor=#ffffff;strokeColor=#A50040;" parent="1" vertex="1">
          <mxGeometry x="600" y="310" width="120" height="60" as="geometry" />
        </mxCell>
        <mxCell id="PWJwkUFBTQs_2MsSsWms-4" value="Conversation logs (JSON)" style="ellipse;whiteSpace=wrap;html=1;aspect=fixed;" parent="1" vertex="1">
          <mxGeometry x="830" y="290" width="80" height="80" as="geometry" />
        </mxCell>
        <mxCell id="PWJwkUFBTQs_2MsSsWms-5" value="&lt;b&gt;Generate Annotation&lt;/b&gt;" style="rounded=0;whiteSpace=wrap;html=1;fillColor=#d80073;fontColor=#ffffff;strokeColor=#A50040;" parent="1" vertex="1">
          <mxGeometry x="600" y="420" width="120" height="60" as="geometry" />
        </mxCell>
        <mxCell id="PWJwkUFBTQs_2MsSsWms-6" value="Annotation logs (JSON)" style="ellipse;whiteSpace=wrap;html=1;aspect=fixed;" parent="1" vertex="1">
          <mxGeometry x="840" y="410" width="80" height="80" as="geometry" />
        </mxCell>
        <mxCell id="PWJwkUFBTQs_2MsSsWms-8" value="Results" style="ellipse;whiteSpace=wrap;html=1;aspect=fixed;" parent="1" vertex="1">
          <mxGeometry x="840" y="520" width="80" height="80" as="geometry" />
        </mxCell>
        <mxCell id="PWJwkUFBTQs_2MsSsWms-9" value="" style="endArrow=classic;html=1;rounded=0;" parent="1" source="PWJwkUFBTQs_2MsSsWms-1" target="PWJwkUFBTQs_2MsSsWms-4" edge="1">
          <mxGeometry width="50" height="50" relative="1" as="geometry">
            <mxPoint x="350" y="830" as="sourcePoint" />
            <mxPoint x="400" y="780" as="targetPoint" />
          </mxGeometry>
        </mxCell>
        <mxCell id="PWJwkUFBTQs_2MsSsWms-10" value="" style="endArrow=classic;html=1;rounded=0;" parent="1" source="PWJwkUFBTQs_2MsSsWms-4" target="PWJwkUFBTQs_2MsSsWms-5" edge="1">
          <mxGeometry width="50" height="50" relative="1" as="geometry">
            <mxPoint x="190" y="770" as="sourcePoint" />
            <mxPoint x="260" y="770" as="targetPoint" />
          </mxGeometry>
        </mxCell>
        <mxCell id="PWJwkUFBTQs_2MsSsWms-11" value="" style="endArrow=classic;html=1;rounded=0;" parent="1" source="PWJwkUFBTQs_2MsSsWms-5" target="PWJwkUFBTQs_2MsSsWms-6" edge="1">
          <mxGeometry width="50" height="50" relative="1" as="geometry">
            <mxPoint x="340" y="770" as="sourcePoint" />
            <mxPoint x="415" y="770" as="targetPoint" />
          </mxGeometry>
        </mxCell>
        <mxCell id="PWJwkUFBTQs_2MsSsWms-12" value="" style="endArrow=classic;html=1;rounded=0;" parent="1" source="PWJwkUFBTQs_2MsSsWms-6" target="PWJwkUFBTQs_2MsSsWms-7" edge="1">
          <mxGeometry width="50" height="50" relative="1" as="geometry">
            <mxPoint x="350" y="780" as="sourcePoint" />
            <mxPoint x="425" y="780" as="targetPoint" />
          </mxGeometry>
        </mxCell>
        <mxCell id="PWJwkUFBTQs_2MsSsWms-13" value="" style="endArrow=classic;html=1;rounded=0;" parent="1" source="PWJwkUFBTQs_2MsSsWms-7" target="PWJwkUFBTQs_2MsSsWms-8" edge="1">
          <mxGeometry width="50" height="50" relative="1" as="geometry">
            <mxPoint x="360" y="790" as="sourcePoint" />
            <mxPoint x="435" y="790" as="targetPoint" />
          </mxGeometry>
        </mxCell>
        <mxCell id="PWJwkUFBTQs_2MsSsWms-14" value="&lt;b&gt;LLM&lt;/b&gt;" style="shape=trapezoid;perimeter=trapezoidPerimeter;whiteSpace=wrap;html=1;fixedSize=1;fillColor=#60a917;fontColor=#ffffff;strokeColor=#2D7600;" parent="1" vertex="1">
          <mxGeometry x="-10" y="390" width="120" height="60" as="geometry" />
        </mxCell>
        <mxCell id="PWJwkUFBTQs_2MsSsWms-15" value="&lt;b&gt;Topic&lt;/b&gt;" style="ellipse;whiteSpace=wrap;html=1;aspect=fixed;fillColor=#60a917;fontColor=#ffffff;strokeColor=#2D7600;" parent="1" vertex="1">
          <mxGeometry x="10" y="250" width="80" height="80" as="geometry" />
        </mxCell>
        <mxCell id="PWJwkUFBTQs_2MsSsWms-16" value="&lt;b&gt;User personas&lt;/b&gt;" style="ellipse;whiteSpace=wrap;html=1;aspect=fixed;fillColor=#60a917;fontColor=#ffffff;strokeColor=#2D7600;" parent="1" vertex="1">
          <mxGeometry x="10" y="140" width="80" height="80" as="geometry" />
        </mxCell>
        <mxCell id="PWJwkUFBTQs_2MsSsWms-18" value="&lt;b&gt;Automated Scripts&lt;/b&gt;" style="rounded=0;whiteSpace=wrap;html=1;fillColor=#1ba1e2;fontColor=#ffffff;strokeColor=#006EAF;" parent="1" vertex="1">
          <mxGeometry x="290" y="320" width="120" height="60" as="geometry" />
        </mxCell>
        <mxCell id="PWJwkUFBTQs_2MsSsWms-19" value="&lt;b&gt;Python API&lt;/b&gt;" style="rounded=0;whiteSpace=wrap;html=1;fillColor=#1ba1e2;fontColor=#ffffff;strokeColor=#006EAF;" parent="1" vertex="1">
          <mxGeometry x="290" y="430" width="120" height="60" as="geometry" />
        </mxCell>
        <mxCell id="PWJwkUFBTQs_2MsSsWms-20" value="" style="ellipse;whiteSpace=wrap;html=1;aspect=fixed;" parent="1" vertex="1">
          <mxGeometry x="220" y="450" width="20" height="20" as="geometry" />
        </mxCell>
        <mxCell id="PWJwkUFBTQs_2MsSsWms-21" value="" style="endArrow=classic;html=1;rounded=0;" parent="1" source="PWJwkUFBTQs_2MsSsWms-16" target="PWJwkUFBTQs_2MsSsWms-20" edge="1">
          <mxGeometry width="50" height="50" relative="1" as="geometry">
            <mxPoint x="495" y="610" as="sourcePoint" />
            <mxPoint x="545" y="560" as="targetPoint" />
          </mxGeometry>
        </mxCell>
        <mxCell id="PWJwkUFBTQs_2MsSsWms-22" value="" style="endArrow=classic;html=1;rounded=0;" parent="1" source="PWJwkUFBTQs_2MsSsWms-14" target="PWJwkUFBTQs_2MsSsWms-20" edge="1">
          <mxGeometry width="50" height="50" relative="1" as="geometry">
            <mxPoint x="229" y="391" as="sourcePoint" />
            <mxPoint x="325" y="410" as="targetPoint" />
          </mxGeometry>
        </mxCell>
        <mxCell id="PWJwkUFBTQs_2MsSsWms-23" value="" style="endArrow=classic;html=1;rounded=0;" parent="1" source="PWJwkUFBTQs_2MsSsWms-15" target="PWJwkUFBTQs_2MsSsWms-20" edge="1">
          <mxGeometry width="50" height="50" relative="1" as="geometry">
            <mxPoint x="239" y="401" as="sourcePoint" />
            <mxPoint x="346" y="465" as="targetPoint" />
          </mxGeometry>
        </mxCell>
        <mxCell id="PWJwkUFBTQs_2MsSsWms-24" value="" style="endArrow=classic;html=1;rounded=0;" parent="1" source="PWJwkUFBTQs_2MsSsWms-20" target="PWJwkUFBTQs_2MsSsWms-17" edge="1">
          <mxGeometry width="50" height="50" relative="1" as="geometry">
            <mxPoint x="249" y="411" as="sourcePoint" />
            <mxPoint x="356" y="475" as="targetPoint" />
          </mxGeometry>
        </mxCell>
        <mxCell id="PWJwkUFBTQs_2MsSsWms-25" value="" style="endArrow=classic;html=1;rounded=0;" parent="1" source="PWJwkUFBTQs_2MsSsWms-20" target="PWJwkUFBTQs_2MsSsWms-18" edge="1">
          <mxGeometry width="50" height="50" relative="1" as="geometry">
            <mxPoint x="259" y="421" as="sourcePoint" />
            <mxPoint x="366" y="485" as="targetPoint" />
          </mxGeometry>
        </mxCell>
        <mxCell id="PWJwkUFBTQs_2MsSsWms-26" value="" style="endArrow=classic;html=1;rounded=0;" parent="1" source="PWJwkUFBTQs_2MsSsWms-20" target="PWJwkUFBTQs_2MsSsWms-19" edge="1">
          <mxGeometry width="50" height="50" relative="1" as="geometry">
            <mxPoint x="269" y="431" as="sourcePoint" />
            <mxPoint x="376" y="495" as="targetPoint" />
          </mxGeometry>
        </mxCell>
        <mxCell id="PWJwkUFBTQs_2MsSsWms-31" value="" style="ellipse;whiteSpace=wrap;html=1;aspect=fixed;" parent="1" vertex="1">
          <mxGeometry x="510" y="450" width="20" height="20" as="geometry" />
        </mxCell>
        <mxCell id="PWJwkUFBTQs_2MsSsWms-32" value="" style="endArrow=classic;html=1;rounded=0;" parent="1" source="PWJwkUFBTQs_2MsSsWms-17" target="PWJwkUFBTQs_2MsSsWms-31" edge="1">
          <mxGeometry width="50" height="50" relative="1" as="geometry">
            <mxPoint x="495" y="610" as="sourcePoint" />
            <mxPoint x="545" y="560" as="targetPoint" />
          </mxGeometry>
        </mxCell>
        <mxCell id="PWJwkUFBTQs_2MsSsWms-34" value="" style="endArrow=classic;html=1;rounded=0;" parent="1" source="PWJwkUFBTQs_2MsSsWms-17" target="PWJwkUFBTQs_2MsSsWms-31" edge="1">
          <mxGeometry width="50" height="50" relative="1" as="geometry">
            <mxPoint x="259" y="600" as="sourcePoint" />
            <mxPoint x="305" y="590" as="targetPoint" />
          </mxGeometry>
        </mxCell>
        <mxCell id="PWJwkUFBTQs_2MsSsWms-35" value="" style="endArrow=classic;html=1;rounded=0;" parent="1" source="PWJwkUFBTQs_2MsSsWms-19" target="PWJwkUFBTQs_2MsSsWms-31" edge="1">
          <mxGeometry width="50" height="50" relative="1" as="geometry">
            <mxPoint x="269" y="610" as="sourcePoint" />
            <mxPoint x="318" y="653" as="targetPoint" />
          </mxGeometry>
        </mxCell>
        <mxCell id="PWJwkUFBTQs_2MsSsWms-36" value="" style="endArrow=classic;html=1;rounded=0;" parent="1" source="PWJwkUFBTQs_2MsSsWms-31" target="PWJwkUFBTQs_2MsSsWms-1" edge="1">
          <mxGeometry width="50" height="50" relative="1" as="geometry">
            <mxPoint x="190" y="690" as="sourcePoint" />
            <mxPoint x="183" y="683" as="targetPoint" />
          </mxGeometry>
        </mxCell>
        <mxCell id="PWJwkUFBTQs_2MsSsWms-37" value="&lt;b&gt;Other config&lt;/b&gt;" style="ellipse;whiteSpace=wrap;html=1;aspect=fixed;fillColor=#60a917;fontColor=#ffffff;strokeColor=#2D7600;" parent="1" vertex="1">
          <mxGeometry x="10" y="490" width="80" height="80" as="geometry" />
        </mxCell>
        <mxCell id="PWJwkUFBTQs_2MsSsWms-38" value="" style="endArrow=classic;html=1;rounded=0;" parent="1" source="PWJwkUFBTQs_2MsSsWms-37" target="PWJwkUFBTQs_2MsSsWms-20" edge="1">
          <mxGeometry width="50" height="50" relative="1" as="geometry">
            <mxPoint x="377" y="396" as="sourcePoint" />
            <mxPoint x="210" y="500" as="targetPoint" />
          </mxGeometry>
        </mxCell>
        <mxCell id="PWJwkUFBTQs_2MsSsWms-45" value="&lt;b&gt;Prompts&lt;/b&gt;" style="ellipse;whiteSpace=wrap;html=1;aspect=fixed;fillColor=#60a917;fontColor=#ffffff;strokeColor=#2D7600;" parent="1" vertex="1">
          <mxGeometry x="10" y="610" width="80" height="80" as="geometry" />
        </mxCell>
        <mxCell id="PWJwkUFBTQs_2MsSsWms-46" value="" style="endArrow=classic;html=1;rounded=0;" parent="1" source="PWJwkUFBTQs_2MsSsWms-45" target="PWJwkUFBTQs_2MsSsWms-20" edge="1">
          <mxGeometry width="50" height="50" relative="1" as="geometry">
            <mxPoint x="449" y="375" as="sourcePoint" />
            <mxPoint x="352" y="453" as="targetPoint" />
          </mxGeometry>
        </mxCell>
        <mxCell id="amVr05D-2JeApJqnwMPW-1" value="" style="endArrow=classic;html=1;rounded=0;" edge="1" parent="1" source="PWJwkUFBTQs_2MsSsWms-18" target="PWJwkUFBTQs_2MsSsWms-31">
          <mxGeometry width="50" height="50" relative="1" as="geometry">
            <mxPoint x="349" y="380" as="sourcePoint" />
            <mxPoint x="335" y="640" as="targetPoint" />
          </mxGeometry>
        </mxCell>
        <mxCell id="PWJwkUFBTQs_2MsSsWms-17" value="&lt;b&gt;Jupyter Notebook&lt;/b&gt;" style="rounded=0;whiteSpace=wrap;html=1;fillColor=#1ba1e2;fontColor=#ffffff;strokeColor=#006EAF;" parent="1" vertex="1">
          <mxGeometry x="290" y="530" width="120" height="60" as="geometry" />
        </mxCell>
        <mxCell id="amVr05D-2JeApJqnwMPW-2" value="" style="curved=1;endArrow=classic;html=1;rounded=0;" edge="1" parent="1" source="PWJwkUFBTQs_2MsSsWms-8" target="PWJwkUFBTQs_2MsSsWms-45">
          <mxGeometry width="50" height="50" relative="1" as="geometry">
            <mxPoint x="560" y="720" as="sourcePoint" />
            <mxPoint x="109" y="473" as="targetPoint" />
            <Array as="points">
              <mxPoint x="710" y="650" />
            </Array>
          </mxGeometry>
        </mxCell>
        <mxCell id="PWJwkUFBTQs_2MsSsWms-7" value="&lt;b&gt;Data Analysis&lt;/b&gt;" style="rounded=0;whiteSpace=wrap;html=1;fillColor=#d80073;fontColor=#ffffff;strokeColor=#A50040;" parent="1" vertex="1">
          <mxGeometry x="600" y="520" width="120" height="60" as="geometry" />
        </mxCell>
        <mxCell id="amVr05D-2JeApJqnwMPW-3" value="&lt;font color=&quot;#009900&quot; style=&quot;font-size: 24px;&quot;&gt;&lt;b&gt;Input/Configurations&lt;/b&gt;&lt;/font&gt;" style="text;html=1;align=center;verticalAlign=middle;whiteSpace=wrap;rounded=0;" vertex="1" parent="1">
          <mxGeometry x="-70" y="70" width="240" height="40" as="geometry" />
        </mxCell>
        <mxCell id="amVr05D-2JeApJqnwMPW-4" value="&lt;span style=&quot;font-size: 24px;&quot;&gt;&lt;b style=&quot;&quot;&gt;&lt;font color=&quot;#0066cc&quot;&gt;Entry-points&lt;/font&gt;&lt;/b&gt;&lt;/span&gt;" style="text;html=1;align=center;verticalAlign=middle;whiteSpace=wrap;rounded=0;" vertex="1" parent="1">
          <mxGeometry x="230" y="220" width="240" height="40" as="geometry" />
        </mxCell>
        <mxCell id="amVr05D-2JeApJqnwMPW-5" value="&lt;span style=&quot;font-size: 24px;&quot;&gt;&lt;b style=&quot;&quot;&gt;&lt;font color=&quot;#cc0066&quot;&gt;Processing&lt;/font&gt;&lt;/b&gt;&lt;/span&gt;" style="text;html=1;align=center;verticalAlign=middle;whiteSpace=wrap;rounded=0;" vertex="1" parent="1">
          <mxGeometry x="540" y="220" width="240" height="40" as="geometry" />
        </mxCell>
        <mxCell id="amVr05D-2JeApJqnwMPW-6" value="&lt;span style=&quot;font-size: 24px;&quot;&gt;&lt;b style=&quot;&quot;&gt;&lt;font color=&quot;#000000&quot;&gt;Output&lt;/font&gt;&lt;/b&gt;&lt;/span&gt;" style="text;html=1;align=center;verticalAlign=middle;whiteSpace=wrap;rounded=0;" vertex="1" parent="1">
          <mxGeometry x="750" y="220" width="240" height="40" as="geometry" />
        </mxCell>
      </root>
    </mxGraphModel>
  </diagram>
</mxfile>
